# xmcd CD database file
#
# Track frame offsets:
#	225
#	14105
#	25340
#	52163
#	63675
#	74912
#	87255
#	99859
#	110917
#	121742
#	131517
#	141947
#	152018
#	162636
#	176493
#	189900
#	206638
#	218724
#
# Disc length: 3076 seconds
#
# Revision: 3
# Processed by: cddbd v1.5.2PL0 Copyright (c) Steve Scherf et al.
# Submitted via: CDex 1.70beta2
#
DISCID=150c0112
DTITLE=Johnny Winter - Livin In The Blues
DYEAR=2005
DGENRE=Blues
TTITLE0=Five After Four A.M
TTITLE1=Gangster Of Love
TTITLE2=Going Down Slow
TTITLE3=The Guy Left Behind
TTITLE4=Can't Believe You
TTITLE5=Leave My Woman Alone
TTITLE6=Leavin Blues
TTITLE7=Livin The Blues
TTITLE8=My Darling
TTITLE9=Out Of Sight
TTITLE10=Little Darling
TTITLE11=By The Light Of The Silvery Moon
TTITLE12=That's What Love Does
TTITLE13=Low Down Gal Of Mine
TTITLE14=Road Runner
TTITLE15=Kindhearted Woman Blues
TTITLE16=Parachment Farm Blues
TTITLE17=Please Come Home For Christmas 
EXTD=YEAR: 2005
EXTT0=
EXTT1=
EXTT2=
EXTT3=
EXTT4=
EXTT5=
EXTT6=
EXTT7=
EXTT8=
EXTT9=
EXTT10=
EXTT11=
EXTT12=
EXTT13=
EXTT14=
EXTT15=
EXTT16=
EXTT17=
PLAYORDER=
